<svg width="18" height="18" viewBox="0 0 18 18" fill="none" xmlns="http://www.w3.org/2000/svg">
<path d="M18 9C18 4.02944 13.9706 0 9 0C4.02944 0 0 4.02944 0 9C0 13.9706 4.02944 18 9 18C13.9706 18 18 13.9706 18 9Z" fill="#F83434"/>
<path d="M17.5 9C17.5 4.30558 13.6944 0.5 9 0.5C4.30558 0.5 0.5 4.30558 0.5 9C0.5 13.6944 4.30558 17.5 9 17.5C13.6944 17.5 17.5 13.6944 17.5 9Z" fill="#F83434"/>
<g clip-path="url(#clip0_1_126)">
<path d="M7.68754 12.5C7.57159 12.4984 7.4604 12.4536 7.37583 12.3742L4.31333 9.31173C4.24356 9.22673 4.20791 9.11881 4.2133 9.00898C4.2187 8.89914 4.26475 8.79524 4.34251 8.71748C4.42027 8.63972 4.52417 8.59367 4.63401 8.58827C4.74384 8.58288 4.85176 8.61853 4.93676 8.6883L7.68754 11.4445L13.5008 5.6258C13.5858 5.55603 13.6937 5.52038 13.8036 5.52577C13.9134 5.53117 14.0173 5.57722 14.0951 5.65498C14.1728 5.73274 14.2189 5.83664 14.2243 5.94648C14.2297 6.05631 14.194 6.16423 14.1243 6.24923L7.99926 12.3742C7.91468 12.4536 7.8035 12.4984 7.68754 12.5Z" fill="white"/>
</g>
<defs>
<clipPath id="clip0_1_126">
<rect width="14" height="14" fill="white" transform="translate(2 2)"/>
</clipPath>
</defs>
</svg>
