<svg width="12" height="12" viewBox="0 0 12 12" fill="none" xmlns="http://www.w3.org/2000/svg">
<path d="M10.871 9.93699C10.1714 8.73155 9.05152 7.82673 7.726 7.39599C8.36138 7.01816 8.85514 6.44217 9.13143 5.75651C9.40771 5.07085 9.45123 4.31344 9.25531 3.60065C9.05939 2.88785 8.63486 2.25909 8.04694 1.81096C7.45902 1.36284 6.74024 1.12013 6.001 1.12013C5.26177 1.12013 4.54298 1.36284 3.95506 1.81096C3.36715 2.25909 2.94262 2.88785 2.7467 3.60065C2.55078 4.31344 2.5943 5.07085 2.87058 5.75651C3.14686 6.44217 3.64062 7.01816 4.276 7.39599C2.95049 7.82673 1.83059 8.73155 1.131 9.93699C1.09666 9.9935 1.07849 10.0584 1.07849 10.1245C1.07849 10.1906 1.09666 10.2555 1.131 10.312C1.16299 10.3695 1.20986 10.4172 1.2667 10.4503C1.32354 10.4834 1.38824 10.5006 1.454 10.5H10.548C10.6137 10.5007 10.6783 10.4837 10.7351 10.4508C10.792 10.4179 10.8389 10.3703 10.871 10.313C10.9055 10.2564 10.9238 10.1913 10.9238 10.125C10.9238 10.0587 10.9055 9.99362 10.871 9.93699Z" fill="#F5EAF5"/>
</svg>
